<svg width="942" height="255" viewBox="0 0 942 255" fill="none" xmlns="http://www.w3.org/2000/svg">
<path d="M1.46143 2C1.46143 2 42.772 96 85.507 96C128.242 96 128.242 253 170.977 253C213.712 253 213.712 56 256.447 56C299.182 56 299.182 35 341.917 35C384.652 35 384.652 2 427.387 2C470.122 2 470.122 190 512.857 190C555.592 190 555.592 52 598.328 52C641.063 52 641.063 102 683.798 102C726.533 102 726.533 253 769.268 253C812.003 253 812.003 119 854.738 119C897.473 119 940.208 82 940.208 82" stroke="#2F3EB1" stroke-width="3"/>
</svg>
