<svg width="942" height="332" viewBox="0 0 942 332" fill="none" xmlns="http://www.w3.org/2000/svg">
<path d="M1.46143 169C1.46143 169 42.772 306 85.507 306C128.242 306 128.242 105 170.977 105C213.712 105 213.712 45 256.447 45C299.182 45 299.182 219 341.917 219C384.652 219 384.652 162 427.387 162C470.122 162 470.122 2 512.857 2C555.592 2 555.592 136 598.328 136C641.063 136 641.063 326 683.798 326C726.533 326 726.533 119 769.268 119C812.003 119 812.003 330 854.738 330C897.473 330 940.208 256 940.208 256" stroke="#2F3EB1" stroke-width="3"/>
</svg>
